<?xml version="1.0" standalone="no"?>
<!DOCTYPE svg PUBLIC "-//W3C//DTD SVG 20010904//EN"
 "http://www.w3.org/TR/2001/REC-SVG-20010904/DTD/svg10.dtd">
<svg version="1.0" xmlns="http://www.w3.org/2000/svg"
 width="300.000000pt" height="300.000000pt" viewBox="0 0 300.000000 300.000000"
 preserveAspectRatio="xMidYMid meet">
<metadata>
Created by potrace 1.11, written by Peter Selinger 2001-2013
</metadata>
<g transform="translate(0.000000,300.000000) scale(0.100000,-0.100000)"
fill="#000000" stroke="none">
<path d="M1114 2753 c-110 -136 -201 -250 -204 -253 -5 -5 -48 -58 -379 -470
-73 -91 -140 -174 -150 -185 -9 -11 -72 -90 -141 -175 -69 -85 -128 -156 -132
-158 -10 -5 -10 -39 0 -44 4 -1 44 -48 87 -103 44 -55 82 -102 85 -105 3 -3
113 -140 246 -305 132 -165 317 -395 410 -511 93 -115 183 -227 199 -248 17
-22 35 -44 40 -50 6 -6 28 -34 50 -61 76 -95 68 -92 106 -43 18 24 36 45 39
48 3 3 29 35 59 72 29 38 54 68 57 68 2 0 44 -52 94 -115 51 -63 93 -115 95
-115 1 0 54 64 118 142 63 79 156 195 207 258 52 63 186 230 299 370 113 140
290 360 394 489 104 128 191 239 193 245 4 10 -25 49 -136 186 -53 65 -285
354 -470 585 -102 127 -190 237 -197 245 -7 8 -92 114 -189 235 -96 121 -181
226 -188 233 -11 11 -30 -8 -105 -102 -51 -64 -94 -116 -96 -116 -1 0 -38 44
-81 98 -43 53 -86 105 -95 115 -16 17 -27 5 -215 -230z m264 -49 c17 -23 32
-45 32 -48 0 -6 -147 -194 -161 -206 -3 -3 -52 -63 -110 -135 -57 -71 -109
-137 -116 -145 -7 -8 -74 -91 -149 -185 -76 -93 -193 -239 -261 -323 -68 -84
-126 -159 -129 -165 -3 -10 274 -361 710 -901 35 -43 91 -113 109 -136 7 -8
29 -36 50 -61 20 -25 37 -49 37 -53 0 -4 -21 -34 -47 -67 -37 -48 -49 -57 -58
-47 -7 7 -196 243 -421 523 -225 281 -414 517 -421 525 -79 97 -163 204 -163
211 0 6 61 84 167 213 8 10 70 87 136 170 67 83 129 160 138 171 23 28 296
365 458 567 151 187 131 178 199 92z m462 -104 c72 -91 139 -174 148 -185 10
-11 127 -157 262 -325 134 -168 291 -363 348 -434 57 -71 106 -134 108 -141 3
-6 -30 -54 -71 -106 -42 -52 -89 -110 -105 -129 -118 -147 -223 -277 -233
-290 -7 -8 -127 -157 -266 -330 -140 -173 -276 -343 -304 -378 -28 -34 -54
-59 -57 -55 -66 81 -90 112 -90 118 0 4 23 35 51 69 67 81 57 68 215 267 76
96 141 176 145 179 3 3 110 136 238 295 128 160 244 303 257 319 13 17 24 32
24 36 0 3 -138 176 -306 385 -168 209 -320 399 -337 421 -18 23 -85 107 -149
186 -65 80 -118 149 -118 153 0 15 94 125 100 118 4 -4 67 -82 140 -173z
m-234 -182 c54 -68 104 -130 111 -138 7 -8 99 -123 205 -256 106 -132 239
-298 296 -368 57 -70 105 -133 108 -140 3 -7 -57 -89 -132 -182 -75 -93 -150
-187 -168 -209 -17 -21 -43 -53 -57 -70 -14 -16 -119 -147 -234 -290 -114
-143 -218 -270 -230 -283 l-22 -23 -319 396 c-175 218 -328 409 -339 423 -11
15 -52 67 -92 115 -40 49 -73 93 -73 97 0 5 60 82 132 172 73 90 169 208 213
263 44 55 82 102 85 105 3 3 30 37 60 75 30 39 59 75 65 81 5 6 72 88 148 182
76 95 139 172 141 172 2 0 48 -55 102 -122z"/>
<path d="M1340 1500 c0 -132 2 -240 6 -240 3 0 76 41 162 92 86 50 178 103
204 117 38 20 45 28 35 37 -13 13 -393 234 -402 234 -3 0 -5 -108 -5 -240z"/>
</g>
</svg>
